<?xml version="1.0" encoding="utf-8"?>
<!-- Generator: Adobe Illustrator 23.0.1, SVG Export Plug-In . SVG Version: 6.00 Build 0)  -->
<svg version="1.1" id="Layer_1" xmlns="http://www.w3.org/2000/svg" xmlns:xlink="http://www.w3.org/1999/xlink" x="0px" y="0px"
	 viewBox="0 0 800 600" style="enable-background:new 0 0 800 600;" xml:space="preserve">
<style type="text/css">
	.st0{fill:#488DCB;}
	.st1{fill:#EF5123;}
	.st2{fill-rule:evenodd;clip-rule:evenodd;fill:#488DCB;}
	.st3{fill:none;stroke:#478DCB;stroke-width:3;stroke-miterlimit:10;}
	.st4{fill:#478DCB;}
</style>
<g>
	<g>
		<path class="st0" d="M280.39,222.82h12.68v49.78h30.31v10.91h-42.99V222.82z"/>
	</g>
	<g>
		<path class="st0" d="M343.47,283.52h-12.6v-60.7h12.6V283.52z"/>
	</g>
	<g>
		<path class="st0" d="M396.14,241.76c-0.96-4.15-3.31-7.04-7.04-8.69c-2.09-0.91-4.41-1.36-6.96-1.36c-4.89,0-8.9,1.84-12.05,5.53
			c-3.14,3.68-4.71,9.23-4.71,16.62c0,7.45,1.7,12.73,5.11,15.82c3.4,3.1,7.27,4.64,11.61,4.64c4.25,0,7.74-1.22,10.46-3.66
			c2.72-2.44,4.39-5.64,5.02-9.6h-14.04v-10.13h25.28v32.57h-8.4l-1.28-7.58c-2.44,2.87-4.64,4.89-6.59,6.07
			c-3.35,2.05-7.47,3.07-12.35,3.07c-8.04,0-14.63-2.79-19.76-8.35c-5.35-5.6-8.03-13.25-8.03-22.96c0-9.82,2.7-17.69,8.11-23.62
			c5.41-5.93,12.56-8.89,21.45-8.89c7.71,0,13.91,1.96,18.59,5.87c4.68,3.91,7.36,8.79,8.05,14.64H396.14z"/>
	</g>
	<g>
		<path class="st0" d="M420.85,283.52v-60.7h12.6v23.14h23.59v-23.14h12.6v60.7h-12.6v-27.09h-23.59v27.09H420.85z"/>
	</g>
	<g>
		<path class="st0" d="M525.93,222.82v10.75h-18.16v49.95h-12.76v-49.95h-18.24v-10.75H525.93z"/>
	</g>
	<g>
		<path class="st0" d="M286.19,321.43c4.89-5,11.11-7.49,18.66-7.49c10.1,0,17.49,3.35,22.16,10.05c2.58,3.76,3.96,7.54,4.15,11.32
			h-12.68c-0.81-2.91-1.84-5.11-3.11-6.59c-2.26-2.64-5.61-3.95-10.05-3.95c-4.52,0-8.08,1.86-10.69,5.58
			c-2.61,3.72-3.91,8.98-3.91,15.79c0,6.81,1.38,11.91,4.13,15.3c2.75,3.39,6.25,5.09,10.49,5.09c4.35,0,7.67-1.45,9.95-4.36
			c1.26-1.56,2.31-3.91,3.14-7.04h12.6c-1.09,6.62-3.86,12-8.33,16.14c-4.47,4.14-10.19,6.22-17.17,6.22
			c-8.64,0-15.43-2.8-20.37-8.4c-4.94-5.63-7.41-13.34-7.41-23.14C277.75,335.33,280.57,327.17,286.19,321.43z"/>
	</g>
	<g>
		<path class="st0" d="M388.03,370.39c-4.58,4.72-11.21,7.08-19.89,7.08c-8.67,0-15.3-2.36-19.89-7.08
			c-6.15-5.79-9.23-14.14-9.23-25.04c0-11.12,3.07-19.46,9.23-25.04c4.58-4.72,11.21-7.08,19.89-7.08c8.67,0,15.3,2.36,19.89,7.08
			c6.12,5.57,9.18,13.92,9.18,25.04C397.21,356.25,394.15,364.6,388.03,370.39z M380.1,361.17c2.95-3.71,4.43-8.98,4.43-15.81
			c0-6.81-1.48-12.07-4.43-15.79c-2.95-3.72-6.94-5.58-11.96-5.58c-5.02,0-9.03,1.85-12.02,5.56c-2.99,3.71-4.49,8.98-4.49,15.81
			c0,6.84,1.49,12.11,4.49,15.81c2.99,3.71,7,5.56,12.02,5.56C373.16,366.72,377.15,364.87,380.1,361.17z"/>
	</g>
	<g>
		<path class="st0" d="M447.15,315.09h18.25v60.7h-11.82v-41.05c0-1.18,0.01-2.83,0.04-4.96c0.03-2.13,0.04-3.77,0.04-4.92
			l-11.5,50.94h-12.33l-11.42-50.94c0,1.15,0.01,2.79,0.04,4.92c0.03,2.13,0.04,3.78,0.04,4.96v41.05h-11.82v-60.7h18.46
			l11.05,47.73L447.15,315.09z"/>
	</g>
	<g>
		<path class="st0" d="M517.4,315.09h18.25v60.7h-11.82v-41.05c0-1.18,0.01-2.83,0.04-4.96c0.03-2.13,0.04-3.77,0.04-4.92
			l-11.5,50.94h-12.33l-11.42-50.94c0,1.15,0.01,2.79,0.04,4.92c0.03,2.13,0.04,3.78,0.04,4.96v41.05h-11.82v-60.7h18.46
			l11.05,47.73L517.4,315.09z"/>
	</g>
	<g>
		<path class="st0" d="M564.74,315.09h14.35l21.47,60.7h-13.75l-4.01-12.48h-22.35l-4.12,12.48h-13.27L564.74,315.09z
			 M563.91,352.85h15.54l-7.67-23.88L563.91,352.85z"/>
	</g>
	<g>
		<path class="st0" d="M608.08,315.09h13.3l24.09,42.32v-42.32h11.82v60.7h-12.68l-24.71-43.07v43.07h-11.82V315.09z"/>
	</g>
	<g>
		<path class="st0" d="M704.75,316.41c4.26,1.4,7.71,3.97,10.34,7.7c2.12,3.02,3.56,6.29,4.33,9.8c0.77,3.51,1.15,6.86,1.15,10.05
			c0,8.07-1.62,14.91-4.86,20.51c-4.4,7.55-11.18,11.32-20.36,11.32h-26.17v-60.7h26.17C699.12,315.14,702.25,315.58,704.75,316.41z
			 M681.5,325.63v39.61h11.71c5.99,0,10.17-2.95,12.54-8.85c1.29-3.24,1.94-7.1,1.94-11.57c0-6.18-0.97-10.92-2.91-14.23
			c-1.94-3.31-5.79-4.96-11.57-4.96H681.5z"/>
	</g>
	<g>
		<path class="st0" d="M739.23,357.05c0.39,2.77,1.16,4.84,2.31,6.22c2.1,2.5,5.7,3.75,10.81,3.75c3.05,0,5.54-0.33,7.44-0.99
			c3.62-1.26,5.42-3.61,5.42-7.04c0-2-0.89-3.55-2.66-4.65c-1.77-1.07-4.58-2.02-8.43-2.84l-6.57-1.44
			c-6.46-1.43-10.9-2.98-13.31-4.65c-4.09-2.8-6.13-7.18-6.13-13.14c0-5.43,2-9.95,6-13.55c4-3.6,9.88-5.39,17.63-5.39
			c6.47,0,12,1.7,16.57,5.09c4.57,3.39,6.97,8.31,7.19,14.76h-12.19c-0.22-3.65-1.86-6.25-4.9-7.78c-2.03-1.01-4.54-1.52-7.56-1.52
			c-3.35,0-6.02,0.66-8.02,1.98c-2,1.32-3,3.16-3,5.52c0,2.17,0.99,3.79,2.95,4.86c1.27,0.71,3.95,1.55,8.06,2.51l10.65,2.51
			c4.67,1.1,8.17,2.57,10.5,4.41c3.62,2.86,5.43,6.99,5.43,12.39c0,5.54-2.14,10.15-6.43,13.81c-4.29,3.67-10.34,5.5-18.17,5.5
			c-7.99,0-14.28-1.8-18.85-5.42c-4.58-3.61-6.87-8.57-6.87-14.88H739.23z"/>
	</g>
</g>
<g>
	<path class="st1" d="M118.16,370.15c-0.86-0.36-1.27-1.35-0.91-2.21c0.36-0.86,1.35-1.27,2.21-0.91l1.47,0.57
		c0.86,0.36,1.27,1.35,0.91,2.21c-0.36,0.86-1.35,1.27-2.21,0.91L118.16,370.15z"/>
</g>
<g>
	<g>
		<path class="st0" d="M70.33,362.24c0.67-0.67,1.75-0.66,2.42,0c0.67,0.67,0.67,1.75,0,2.42l-25.18,25.1
			c-0.67,0.67-1.75,0.67-2.42,0c-0.67-0.67-0.67-1.75,0-2.42L70.33,362.24z"/>
	</g>
	<g>
		<path class="st1" d="M74.61,365.91c0.36-0.87,1.36-1.28,2.23-0.91c0.87,0.36,1.28,1.36,0.91,2.23l-8.34,20.02
			c-0.36,0.87-1.36,1.28-2.23,0.91c-0.87-0.36-1.28-1.36-0.91-2.23L74.61,365.91z"/>
	</g>
	<g>
		<path class="st1" d="M67.79,357.21c0.87-0.36,1.87,0.06,2.23,0.93c0.36,0.87-0.06,1.87-0.93,2.23l-20.06,8.26
			c-0.87,0.36-1.87-0.06-2.23-0.93c-0.36-0.87,0.06-1.87,0.93-2.23L67.79,357.21z"/>
	</g>
	<g>
		<path class="st0" d="M90.5,364.62c-0.66-0.66-0.66-1.74,0-2.4s1.74-0.66,2.4,0l24.88,24.96c0.66,0.66,0.66,1.74,0,2.4
			c-0.66,0.66-1.74,0.66-2.4,0L90.5,364.62z"/>
	</g>
	<g>
		<path class="st0" d="M79.95,367.57c0-0.94,0.76-1.69,1.7-1.69c0.94,0,1.69,0.76,1.69,1.7L83.32,379c0,0.94-0.76,1.69-1.7,1.69
			c-0.94,0-1.69-0.76-1.69-1.7L79.95,367.57z"/>
	</g>
	<g>
		<path class="st0" d="M67.45,351.64c0.94,0,1.69,0.76,1.69,1.7c0,0.94-0.76,1.69-1.7,1.69l-13.03-0.02c-0.94,0-1.69-0.76-1.69-1.7
			c0-0.94,0.76-1.69,1.7-1.69L67.45,351.64z"/>
	</g>
	<g>
		<path class="st0" d="M72.83,342.09c0.66,0.66,0.66,1.74,0,2.4c-0.66,0.66-1.74,0.66-2.4,0l-24.88-24.96
			c-0.66-0.66-0.66-1.74,0-2.4c0.66-0.66,1.74-0.66,2.4,0L72.83,342.09z"/>
	</g>
	<g>
		<path class="st0" d="M83.39,339.14c0,0.94-0.76,1.69-1.7,1.69c-0.94,0-1.69-0.76-1.69-1.7l0.06-35.24c0-0.94,0.76-1.69,1.7-1.69
			c0.94,0,1.69,0.76,1.69,1.7L83.39,339.14z"/>
	</g>
	<g>
		<path class="st0" d="M95.88,355.08c-0.94,0-1.69-0.76-1.69-1.7c0-0.94,0.76-1.69,1.7-1.69l35.24,0.06c0.94,0,1.69,0.76,1.69,1.7
			c0,0.94-0.76,1.69-1.7,1.69L95.88,355.08z"/>
	</g>
	<g>
		<path class="st1" d="M93.9,360.02c-0.85-0.36-1.26-1.34-0.9-2.2c0.36-0.85,1.34-1.26,2.2-0.9l19.69,8.21
			c0.85,0.36,1.26,1.34,0.9,2.2c-0.36,0.85-1.34,1.26-2.2,0.9L93.9,360.02z"/>
	</g>
	<g>
		<path class="st1" d="M64.02,315.66c-0.35-0.86,0.06-1.84,0.92-2.19c0.86-0.35,1.84,0.06,2.19,0.92l0.63,1.43
			c0.35,0.86-0.06,1.84-0.92,2.19c-0.86,0.35-1.84-0.06-2.19-0.92L64.02,315.66z"/>
	</g>
	<g>
		<path class="st1" d="M85.52,367.15c-0.36-0.86,0.06-1.85,0.92-2.21c0.86-0.36,1.85,0.06,2.21,0.92l8.18,19.88
			c0.36,0.86-0.06,1.85-0.92,2.21c-0.87,0.36-1.85-0.06-2.21-0.92L85.52,367.15z"/>
	</g>
	<g>
		<path class="st1" d="M69.2,346.33c0.86,0.36,1.27,1.35,0.91,2.21c-0.36,0.86-1.35,1.27-2.21,0.91l-19.84-8.27
			c-0.86-0.36-1.27-1.35-0.91-2.21c0.36-0.86,1.35-1.27,2.21-0.91L69.2,346.33z"/>
	</g>
	<g>
		<path class="st1" d="M77.71,339.36c0.35,0.86-0.06,1.84-0.91,2.19s-1.84-0.06-2.19-0.91l-8.12-19.72
			c-0.35-0.86,0.06-1.84,0.92-2.19c0.86-0.35,1.84,0.06,2.19,0.91L77.71,339.36z"/>
	</g>
	<g>
		<path class="st2" d="M76.55,348.22c-2.83,2.82-2.84,7.43-0.02,10.26c2.82,2.83,7.43,2.84,10.26,0.02
			c2.83-2.82,2.84-7.43,0.02-10.26C83.98,345.41,79.38,345.4,76.55,348.22z"/>
	</g>
	<g>
		
			<rect x="59.91" y="297.93" transform="matrix(0.7082 -0.706 0.706 0.7082 -173.0545 182.6841)" class="st2" width="149.16" height="5.55"/>
	</g>
	<g>
		<path class="st1" d="M88.74,339.46c-0.39,0.93-1.46,1.37-2.39,0.98c-0.93-0.39-1.37-1.46-0.98-2.39l8.94-21.46
			c0.39-0.93,1.46-1.37,2.39-0.98c0.93,0.39,1.37,1.46,0.98,2.39L88.74,339.46z"/>
	</g>
	<g>
		<path class="st1" d="M97.04,349.78c-0.93,0.38-2-0.06-2.39-1c-0.38-0.93,0.06-2,1-2.39l21.5-8.85c0.93-0.38,2,0.06,2.39,1
			c0.38,0.94-0.06,2-1,2.39L97.04,349.78z"/>
	</g>
</g>
<g>
	<path class="st1" d="M187.01,255.3l22.3,8.98l13.63-13.59c8.2,15.1,12.29,31.84,12.26,48.58c-0.04,25.99-10,51.97-29.86,71.77
		c-19.86,19.8-45.87,29.67-71.87,29.63c-15.64-0.02-31.27-3.64-45.55-10.84c-2.87-1.44-6.36-0.44-8.09,2.27l-1.27,1.98
		c16.92,9.82,35.9,14.75,54.89,14.78c28.09,0.04,56.2-10.63,77.66-32.02c21.46-21.39,32.22-49.47,32.27-77.56
		c0.04-27.87-10.47-55.77-31.53-77.16l0.01-0.01c-0.08-0.08-0.17-0.16-0.25-0.24c-0.08-0.08-0.16-0.17-0.24-0.25l-0.01,0.01
		c-21.33-21.13-49.19-31.73-77.06-31.78c-28.09-0.04-56.2,10.63-77.66,32.02c-21.46,21.39-32.22,49.47-32.27,77.56
		c-0.03,18.99,4.84,37.99,14.6,54.94l1.99-1.26c2.71-1.72,3.73-5.21,2.29-8.08c-7.15-14.31-10.72-29.95-10.69-45.59
		c0.04-25.99,10-51.97,29.86-71.77c19.86-19.8,45.87-29.67,71.87-29.63c17.66,0.03,35.32,4.64,51.03,13.82l-14,13.95l9.15,22.92
		L187.01,255.3"/>
</g>
<g>
	<g>
		<line class="st3" x1="148.57" y1="381" x2="141.51" y2="349.64"/>
		<g>
			
				<ellipse transform="matrix(0.9755 -0.2199 0.2199 0.9755 -80.5731 40.3258)" class="st0" cx="140.86" cy="382.09" rx="9.22" ry="5.8"/>
		</g>
		<line class="st3" x1="172.89" y1="375.58" x2="165.83" y2="344.22"/>
		<g>
			
				<ellipse transform="matrix(0.9755 -0.2199 0.2199 0.9755 -78.7866 45.541)" class="st0" cx="165.18" cy="376.68" rx="9.22" ry="5.8"/>
		</g>
		<g>
			
				<rect x="140.64" y="346.8" transform="matrix(0.9758 -0.2189 0.2189 0.9758 -72.927 42.2804)" class="st0" width="27.5" height="7.04"/>
		</g>
	</g>
	<g>
		<line class="st3" x1="139.97" y1="232.99" x2="134.56" y2="202.23"/>
		<g>
			<path class="st0" d="M134.84,203.09c0,0,11.89,7.24,16.89,6.36c5-0.88-12.34,9.17-15.02,4.28
				C134.03,208.83,134.84,203.09,134.84,203.09z"/>
		</g>
		<g>
			
				<ellipse transform="matrix(0.9849 -0.1733 0.1733 0.9849 -38.5182 26.4628)" class="st0" cx="132.31" cy="233.85" rx="8.96" ry="5.63"/>
		</g>
	</g>
	<g>
		<path class="st4" d="M70.17,286.14c0.17,0.94-0.39,1.51-0.95,1.77c-0.57,0.3-1.19,0.44-1.8,0.47c-1.21,0.04-2.3-0.32-3.3-0.67
			c-0.61-0.21-1.24-0.61-1.7-1.07c-0.47-0.46-0.83-0.98-1.1-1.5c-0.55-1.05-0.84-2.12-1.03-3.17c-0.36-2.11-0.32-4.18-0.03-6.25
			c0.16-1.04,0.39-2.07,0.78-3.12c0.19-0.51,0.47-1.11,0.78-1.6c0.28-0.46,0.59-0.9,0.92-1.33c1.32-1.69,2.98-3.25,5.26-4.13
			c1.13-0.43,2.44-0.62,3.72-0.44c1.29,0.17,2.45,0.67,3.48,1.37c2.06,1.44,3.27,3.56,3.96,5.64c0.69,2.11,0.92,4.28,0.77,6.44
			c-0.07,1.08-0.26,2.17-0.55,3.22c-0.27,0.99-0.59,1.96-0.95,2.91c-0.73,1.91-1.62,3.78-2.81,5.55c-1.19,1.75-2.69,3.43-4.68,4.63
			c-1.97,1.21-4.44,1.8-6.75,1.6c-1.16-0.1-2.25-0.34-3.32-0.7c-1.07-0.37-2.15-0.88-3.1-1.59c-1.94-1.39-3.33-3.42-4.14-5.45
			c-0.83-2.05-1.23-4.13-1.46-6.17c-0.13-1.02-0.16-2.06-0.21-3.03l-0.09-2.85c-0.06-1.89-0.14-3.78-0.34-5.6
			c-0.21-1.81-0.51-3.55-1.23-4.97c-0.34-0.68-0.85-1.49-1.24-1.87c-0.45-0.42-0.69-0.48-1.02-0.44c-0.36,0.05-0.94,0.39-1.45,0.93
			c-0.51,0.52-1.03,1.25-1.42,1.93c-0.37,0.65-0.55,1.28-0.52,1.77c0.03,0.48,0.25,0.94,0.72,1.43c0.96,0.98,2.63,1.72,4.32,2.26
			c1.68,0.53,3.62,0.92,5.47,1.38l5.62,1.35c3.75,0.92,7.49,1.88,11.22,2.96c3.73,1.08,7.44,2.22,11.11,3.76
			c0.92,0.4,1.83,0.8,2.75,1.3c0.91,0.52,1.84,1.01,2.77,1.96c0.86,0.96,1.43,1.96,1.8,3.17c0.35,1.19,0.39,2.49,0.12,3.7
			c-0.55,2.45-2.27,4.43-4.31,5.52c-1.02,0.55-2.11,0.93-3.22,1.1c-0.55,0.09-1.1,0.14-1.65,0.16c-0.27,0.01-0.55,0-0.82,0
			c-0.27,0.03-0.56,0-0.74-1.36l0.02-0.37c0.3-1.34,0.48-1.36,0.7-1.33l0.62-0.06c0.41-0.06,0.81-0.13,1.2-0.24
			c0.77-0.23,1.52-0.49,2.16-0.91c1.31-0.78,2.29-1.98,2.62-3.3c0.18-0.66,0.18-1.34,0.03-2.01c-0.15-0.64-0.53-1.36-0.94-1.85
			c-0.39-0.45-1.14-0.96-1.9-1.37c-0.77-0.42-1.61-0.82-2.46-1.17c-3.43-1.42-7.09-2.52-10.76-3.56c-3.67-1.03-7.38-1.96-11.11-2.85
			l-5.6-1.31c-1.88-0.45-3.72-0.81-5.72-1.4c-0.98-0.3-1.97-0.66-2.94-1.13c-0.97-0.48-1.96-1.06-2.85-1.94
			c-0.89-0.86-1.66-2.19-1.76-3.64c-0.1-1.44,0.36-2.71,0.91-3.74c0.55-0.99,1.15-1.86,1.96-2.72c0.81-0.83,1.85-1.69,3.41-2
			c0.77-0.14,1.64-0.08,2.38,0.21c0.75,0.28,1.35,0.71,1.84,1.17c0.49,0.46,0.87,0.99,1.16,1.42c0.31,0.45,0.6,0.94,0.85,1.44
			c1.02,2.04,1.44,4.14,1.76,6.12c0.31,2,0.48,3.95,0.63,5.89l0.17,2.91c0.07,0.95,0.08,1.83,0.21,2.72c0.2,1.78,0.56,3.5,1.18,5.02
			c0.61,1.53,1.49,2.79,2.67,3.66c1.14,0.88,2.77,1.39,4.3,1.59c1.52,0.16,3-0.13,4.31-0.93c1.32-0.78,2.47-2.02,3.44-3.44
			c0.97-1.42,1.76-3.04,2.4-4.72c0.32-0.84,0.6-1.7,0.85-2.56c0.23-0.81,0.38-1.61,0.44-2.45c0.13-1.67-0.04-3.39-0.53-4.95
			c-0.49-1.55-1.34-2.93-2.46-3.71c-1.15-0.81-2.44-0.99-3.78-0.55c-1.35,0.44-2.7,1.52-3.77,2.82c-0.27,0.32-0.52,0.66-0.76,1.01
			c-0.22,0.32-0.36,0.59-0.52,0.97c-0.31,0.73-0.53,1.58-0.71,2.44c-0.34,1.72-0.46,3.54-0.26,5.24c0.19,1.69,0.81,3.31,1.84,3.68
			c0.78,0.34,1.6,0.44,2.31,0.47c0.36,0.01,0.7,0.02,1.04,0c0.33-0.07,0.64,0.02,1.45,0.24L70.17,286.14z"/>
	</g>
	<g>
		<g>
			
				<ellipse transform="matrix(0.3555 -0.9347 0.9347 0.3555 -136.201 373.5934)" class="st0" cx="202.8" cy="285.56" rx="4.77" ry="5.05"/>
		</g>
		<g>
			<path class="st4" d="M198.02,283.77c1.06-2.19,2.63-4.13,4.79-5.54c1.07-0.71,2.31-1.23,3.63-1.52c1.32-0.28,2.71-0.29,4.04-0.07
				c0.67,0.11,1.32,0.28,1.95,0.49c0.61,0.19,1.22,0.4,1.83,0.67c1.22,0.52,2.42,1.25,3.49,2.27c1.07,1,1.96,2.33,2.44,3.8
				c0.48,1.46,0.6,2.99,0.44,4.4c-0.07,0.71-0.2,1.4-0.39,2.06c-0.09,0.33-0.19,0.66-0.3,0.98l-0.17,0.48l-0.09,0.24l-0.18,0.39
				c-0.51,0.98-0.97,1.44-1.45,1.97c-0.48,0.5-0.95,0.94-1.44,1.35c-1.93,1.66-4.04,2.91-6.23,4c-2.21,1.04-4.54,1.87-6.98,2.29
				c-2.42,0.42-4.98,0.47-7.37-0.2l0.25-1.81c4.33-0.1,8.38-1.82,12.02-4.08c1.83-1.11,3.55-2.45,5.05-3.83
				c0.37-0.35,0.71-0.71,1.01-1.06c0.29-0.32,0.57-0.75,0.57-0.81l0.17-0.51c0.07-0.22,0.13-0.45,0.18-0.67
				c0.1-0.45,0.18-0.89,0.23-1.32c0.17-1.75-0.13-3.18-1.12-4.51c-0.51-0.66-1.21-1.26-2.02-1.8c-0.41-0.27-0.85-0.51-1.3-0.74
				c-0.44-0.2-0.89-0.37-1.34-0.51c-1.81-0.53-3.76-0.41-5.65,0.38c-1.87,0.79-3.69,2.14-5.19,3.74L198.02,283.77z"/>
		</g>
		<g>
			
				<ellipse transform="matrix(0.3555 -0.9347 0.9347 0.3555 -125.4073 398.5645)" class="st0" cx="226.3" cy="290.22" rx="2.42" ry="2.57"/>
		</g>
		<g>
			
				<ellipse transform="matrix(0.3555 -0.9347 0.9347 0.3555 -133.4472 400.5338)" class="st0" cx="223.71" cy="297.03" rx="2.42" ry="2.57"/>
		</g>
	</g>
	<g>
		<line class="st3" x1="123.65" y1="284.85" x2="97.09" y2="266.74"/>
		<g>
			
				<ellipse transform="matrix(0.5633 -0.8263 0.8263 0.5633 -188.5064 225.1629)" class="st0" cx="118.75" cy="290.91" rx="9.22" ry="5.8"/>
		</g>
		<line class="st3" x1="137.74" y1="264.29" x2="111.18" y2="246.19"/>
		<g>
			
				<ellipse transform="matrix(0.5633 -0.8263 0.8263 0.5633 -165.3738 227.8278)" class="st0" cx="132.84" cy="270.36" rx="9.22" ry="5.8"/>
		</g>
		<g>
			
				<rect x="93.23" y="254.93" transform="matrix(0.5642 -0.8257 0.8257 0.5642 -166.7689 200.964)" class="st0" width="27.5" height="7.04"/>
		</g>
	</g>
	<g>
		<line class="st3" x1="181.33" y1="314.68" x2="150.31" y2="311.05"/>
		<g>
			<path class="st0" d="M151.22,311.02c0,0,10.34-9.31,10.94-14.36c0.59-5.04,5.25,14.45-0.21,15.61
				C156.49,313.44,151.22,311.02,151.22,311.02z"/>
		</g>
		<g>
			
				<ellipse transform="matrix(0.1164 -0.9932 0.9932 0.1164 -161.0605 463.5091)" class="st0" cx="179.96" cy="322.27" rx="8.96" ry="5.63"/>
		</g>
	</g>
</g>
</svg>
