<?xml version="1.0" encoding="utf-8"?>
<!-- Generator: Adobe Illustrator 23.0.1, SVG Export Plug-In . SVG Version: 6.00 Build 0)  -->
<svg version="1.1" id="Layer_1" xmlns="http://www.w3.org/2000/svg" xmlns:xlink="http://www.w3.org/1999/xlink" x="0px" y="0px"
	 viewBox="0 0 800 800" style="enable-background:new 0 0 800 800;" xml:space="preserve">
<style type="text/css">
	.st0{fill:#488DCB;}
	.st1{fill:#EF5123;}
	.st2{fill-rule:evenodd;clip-rule:evenodd;fill:#488DCB;}
	.st3{fill:none;stroke:#478DCB;stroke-width:3;stroke-miterlimit:10;}
	.st4{fill:#478DCB;}
</style>
<g>
	<g>
		<path class="st0" d="M336.91,463.72c0.67-0.67,1.75-0.67,2.42,0c0.67,0.67,0.67,1.75,0,2.42l-25.14,25.14
			c-0.67,0.67-1.75,0.67-2.42,0c-0.67-0.67-0.67-1.75,0-2.42L336.91,463.72z"/>
	</g>
	<g>
		<path class="st1" d="M341.19,467.38c0.36-0.87,1.36-1.28,2.23-0.92c0.87,0.36,1.28,1.36,0.92,2.23l-8.31,20.03
			c-0.36,0.87-1.36,1.28-2.23,0.92c-0.87-0.36-1.28-1.36-0.92-2.23L341.19,467.38z"/>
	</g>
	<g>
		<path class="st1" d="M334.35,458.69c0.87-0.36,1.87,0.05,2.23,0.93c0.36,0.87-0.05,1.87-0.93,2.23l-20.04,8.29
			c-0.87,0.36-1.87-0.05-2.23-0.93c-0.36-0.87,0.05-1.87,0.93-2.23L334.35,458.69z"/>
	</g>
	<g>
		<path class="st0" d="M357.08,466.08c-0.66-0.66-0.66-1.74,0-2.4c0.66-0.66,1.74-0.66,2.4,0l24.92,24.92c0.66,0.66,0.66,1.74,0,2.4
			c-0.66,0.66-1.74,0.66-2.4,0L357.08,466.08z"/>
	</g>
	<g>
		<path class="st0" d="M346.53,469.04c0-0.94,0.76-1.7,1.7-1.7c0.94,0,1.7,0.76,1.7,1.7l0,11.42c0,0.94-0.76,1.7-1.7,1.7
			c-0.94,0-1.7-0.76-1.7-1.7L346.53,469.04z"/>
	</g>
	<g>
		<path class="st0" d="M334.01,453.13c0.94,0,1.7,0.76,1.7,1.7c0,0.94-0.76,1.7-1.7,1.7l-13.03,0c-0.94,0-1.7-0.76-1.7-1.7
			c0-0.94,0.76-1.7,1.7-1.7H334.01z"/>
	</g>
	<g>
		<path class="st0" d="M339.37,443.57c0.66,0.66,0.66,1.74,0,2.4c-0.66,0.66-1.74,0.66-2.4,0l-24.92-24.92
			c-0.66-0.66-0.66-1.74,0-2.4c0.66-0.66,1.74-0.66,2.4,0L339.37,443.57z"/>
	</g>
	<g>
		<path class="st0" d="M349.92,440.61c0,0.94-0.76,1.7-1.7,1.7c-0.94,0-1.7-0.76-1.7-1.7v-35.24c0-0.94,0.76-1.7,1.7-1.7
			c0.94,0,1.7,0.76,1.7,1.7L349.92,440.61z"/>
	</g>
	<g>
		<path class="st0" d="M362.44,456.52c-0.94,0-1.7-0.76-1.7-1.7c0-0.94,0.76-1.7,1.7-1.7l35.24,0c0.94,0,1.7,0.76,1.7,1.7
			c0,0.94-0.76,1.7-1.7,1.7H362.44z"/>
	</g>
	<g>
		<path class="st1" d="M360.47,461.46c-0.85-0.36-1.26-1.34-0.9-2.19c0.36-0.85,1.34-1.26,2.19-0.9l19.7,8.17
			c0.85,0.36,1.26,1.34,0.9,2.19c-0.36,0.85-1.34,1.26-2.19,0.9L360.47,461.46z"/>
	</g>
	<g>
		<path class="st1" d="M384.74,471.56c-0.86-0.36-1.27-1.35-0.91-2.21c0.36-0.86,1.35-1.27,2.21-0.91l1.47,0.57
			c0.86,0.36,1.27,1.35,0.91,2.21s-1.35,1.27-2.21,0.91L384.74,471.56z"/>
	</g>
	<g>
		<path class="st1" d="M330.52,417.15c-0.35-0.86,0.06-1.84,0.91-2.19s1.84,0.06,2.19,0.91l0.63,1.43c0.35,0.86-0.06,1.84-0.91,2.19
			c-0.86,0.35-1.84-0.06-2.19-0.91L330.52,417.15z"/>
	</g>
	<g>
		<path class="st1" d="M352.1,468.61c-0.36-0.86,0.05-1.85,0.92-2.21c0.86-0.36,1.85,0.05,2.21,0.92l8.22,19.87
			c0.36,0.86-0.05,1.85-0.92,2.21c-0.86,0.36-1.85-0.05-2.21-0.92L352.1,468.61z"/>
	</g>
	<g>
		<path class="st1" d="M335.74,447.81c0.86,0.36,1.27,1.35,0.91,2.21c-0.36,0.86-1.35,1.27-2.21,0.91l-19.86-8.24
			c-0.86-0.36-1.27-1.35-0.91-2.21c0.36-0.86,1.35-1.27,2.21-0.91L335.74,447.81z"/>
	</g>
	<g>
		<path class="st1" d="M344.25,440.83c0.35,0.86-0.05,1.84-0.91,2.19c-0.86,0.35-1.84-0.05-2.19-0.91l-8.15-19.71
			c-0.35-0.86,0.05-1.84,0.91-2.19c0.86-0.35,1.84,0.05,2.19,0.91L344.25,440.83z"/>
	</g>
	<g>
		<path class="st2" d="M343.1,449.7c-2.82,2.82-2.82,7.43,0,10.26c2.82,2.82,7.43,2.82,10.26,0c2.82-2.82,2.82-7.43,0-10.26
			C350.53,446.87,345.92,446.87,343.1,449.7z"/>
	</g>
	<g>
		
			<rect x="326.38" y="399.31" transform="matrix(0.7071 -0.7071 0.7071 0.7071 -166.8804 401.2927)" class="st2" width="149.16" height="5.55"/>
	</g>
	<g>
		<path class="st1" d="M355.28,440.92c-0.39,0.93-1.46,1.37-2.39,0.98c-0.93-0.39-1.37-1.46-0.98-2.39l8.91-21.47
			c0.39-0.93,1.46-1.37,2.39-0.98c0.93,0.39,1.37,1.46,0.98,2.39L355.28,440.92z"/>
	</g>
	<g>
		<path class="st1" d="M363.6,451.22c-0.93,0.39-2-0.06-2.39-0.99c-0.39-0.93,0.06-2,0.99-2.39l21.48-8.88
			c0.93-0.39,2.01,0.06,2.39,0.99c0.39,0.93-0.06,2-0.99,2.39L363.6,451.22z"/>
	</g>
</g>
<g>
	<path class="st1" d="M453.41,356.6l22.31,8.95l13.61-13.61c8.22,15.09,12.34,31.83,12.34,48.56c0,25.99-9.91,51.99-29.74,71.82
		s-45.83,29.74-71.82,29.74c-15.64,0-31.27-3.59-45.57-10.76c-2.87-1.44-6.36-0.43-8.08,2.28l-1.26,1.99
		c16.93,9.79,35.92,14.69,54.91,14.69c28.09,0,56.19-10.72,77.61-32.14c21.43-21.43,32.14-49.52,32.14-77.61
		c0-27.87-10.56-55.75-31.65-77.11l0.01-0.01c-0.08-0.08-0.17-0.16-0.25-0.24c-0.08-0.08-0.16-0.17-0.24-0.25l-0.01,0.01
		c-21.36-21.1-49.24-31.66-77.11-31.65c-28.09,0-56.19,10.72-77.61,32.14c-21.43,21.43-32.14,49.52-32.14,77.61
		c0,18.99,4.9,37.98,14.69,54.91l1.99-1.26c2.71-1.72,3.72-5.22,2.28-8.08c-7.18-14.3-10.76-29.93-10.76-45.57
		c0-25.99,9.91-51.99,29.74-71.82s45.83-29.74,71.82-29.74c17.66,0,35.32,4.58,51.05,13.74l-13.98,13.98l9.18,22.91L453.41,356.6"/>
</g>
<g>
	<g>
		<line class="st3" x1="415.18" y1="482.36" x2="408.06" y2="451.01"/>
		<g>
			
				<ellipse transform="matrix(0.9752 -0.2214 0.2214 0.9752 -96.9436 102.231)" class="st0" cx="407.46" cy="483.47" rx="9.22" ry="5.8"/>
		</g>
		<line class="st3" x1="439.49" y1="476.9" x2="432.37" y2="445.55"/>
		<g>
			
				<ellipse transform="matrix(0.9752 -0.2214 0.2214 0.9752 -95.1319 107.4792)" class="st0" cx="431.77" cy="478.01" rx="9.22" ry="5.8"/>
		</g>
		<g>
			
				<rect x="407.19" y="448.15" transform="matrix(0.9754 -0.2204 0.2204 0.9754 -89.1979 103.8815)" class="st0" width="27.5" height="7.04"/>
		</g>
	</g>
	<g>
		<line class="st3" x1="406.34" y1="334.37" x2="400.88" y2="303.61"/>
		<g>
			<path class="st0" d="M401.17,304.47c0,0,11.9,7.22,16.9,6.33s-12.32,9.19-15.01,4.3C400.37,310.22,401.17,304.47,401.17,304.47z"
				/>
		</g>
		<g>
			
				<ellipse transform="matrix(0.9846 -0.1748 0.1748 0.9846 -52.4697 74.8656)" class="st0" cx="398.68" cy="335.23" rx="8.96" ry="5.63"/>
		</g>
	</g>
	<g>
		<path class="st4" d="M336.62,387.62c0.17,0.94-0.39,1.51-0.95,1.77c-0.57,0.3-1.19,0.44-1.79,0.47c-1.21,0.05-2.3-0.31-3.3-0.66
			c-0.61-0.21-1.24-0.61-1.7-1.07c-0.47-0.46-0.83-0.98-1.11-1.5c-0.55-1.05-0.84-2.12-1.03-3.17c-0.36-2.11-0.33-4.18-0.04-6.25
			c0.15-1.04,0.39-2.07,0.77-3.12c0.19-0.51,0.47-1.11,0.78-1.6c0.28-0.46,0.59-0.9,0.92-1.33c1.32-1.69,2.97-3.26,5.25-4.14
			c1.13-0.44,2.44-0.63,3.72-0.45c1.29,0.17,2.46,0.66,3.49,1.36c2.06,1.44,3.27,3.55,3.97,5.63c0.69,2.1,0.92,4.28,0.78,6.44
			c-0.07,1.08-0.25,2.17-0.54,3.22c-0.27,0.99-0.58,1.96-0.94,2.92c-0.72,1.91-1.61,3.79-2.8,5.55c-1.18,1.75-2.68,3.43-4.67,4.64
			c-1.97,1.21-4.43,1.81-6.74,1.61c-1.16-0.1-2.25-0.33-3.32-0.7c-1.07-0.37-2.15-0.88-3.1-1.59c-1.95-1.39-3.34-3.41-4.15-5.44
			c-0.83-2.05-1.24-4.13-1.47-6.17c-0.13-1.01-0.16-2.06-0.21-3.03l-0.1-2.85c-0.06-1.89-0.14-3.78-0.35-5.6
			c-0.21-1.81-0.52-3.55-1.24-4.97c-0.34-0.68-0.86-1.49-1.25-1.87c-0.45-0.42-0.69-0.48-1.02-0.44c-0.36,0.05-0.94,0.39-1.45,0.93
			c-0.51,0.52-1.03,1.25-1.42,1.93c-0.37,0.65-0.54,1.28-0.51,1.77c0.03,0.48,0.25,0.94,0.72,1.43c0.96,0.98,2.64,1.72,4.32,2.25
			c1.68,0.52,3.62,0.92,5.48,1.37l5.62,1.34c3.75,0.91,7.49,1.87,11.22,2.94c3.73,1.08,7.44,2.21,11.11,3.75
			c0.92,0.4,1.84,0.8,2.75,1.3c0.91,0.52,1.84,1.01,2.78,1.96c0.86,0.95,1.43,1.96,1.8,3.17c0.35,1.19,0.39,2.48,0.13,3.7
			c-0.54,2.45-2.26,4.44-4.3,5.52c-1.02,0.56-2.11,0.93-3.21,1.11c-0.55,0.1-1.1,0.14-1.65,0.16c-0.27,0.01-0.55,0-0.82,0
			c-0.27,0.03-0.56,0-0.75-1.36l0.02-0.37c0.3-1.34,0.48-1.36,0.7-1.33l0.62-0.06c0.41-0.06,0.81-0.13,1.2-0.24
			c0.77-0.23,1.52-0.5,2.16-0.91c1.3-0.79,2.28-1.98,2.62-3.3c0.17-0.66,0.18-1.34,0.02-2.01c-0.15-0.64-0.53-1.36-0.94-1.85
			c-0.39-0.45-1.14-0.96-1.9-1.37c-0.77-0.42-1.61-0.81-2.46-1.17c-3.44-1.41-7.1-2.51-10.76-3.54c-3.67-1.02-7.39-1.95-11.12-2.83
			l-5.61-1.3c-1.88-0.45-3.72-0.8-5.72-1.39c-0.98-0.29-1.97-0.65-2.94-1.12c-0.97-0.47-1.96-1.06-2.85-1.94
			c-0.89-0.86-1.67-2.19-1.76-3.64c-0.1-1.44,0.36-2.72,0.91-3.74c0.55-0.99,1.14-1.86,1.96-2.73c0.81-0.83,1.85-1.7,3.4-2.01
			c0.77-0.15,1.63-0.08,2.38,0.2c0.75,0.27,1.35,0.71,1.84,1.17c0.49,0.45,0.87,0.98,1.16,1.42c0.31,0.45,0.6,0.94,0.86,1.44
			c1.02,2.03,1.45,4.13,1.77,6.11c0.31,2,0.48,3.95,0.64,5.89l0.18,2.91c0.07,0.95,0.08,1.83,0.21,2.72c0.2,1.77,0.56,3.5,1.19,5.01
			c0.61,1.53,1.49,2.79,2.68,3.66c1.14,0.87,2.78,1.39,4.3,1.59c1.52,0.16,3-0.13,4.31-0.93c1.32-0.79,2.47-2.02,3.43-3.44
			c0.97-1.43,1.75-3.04,2.39-4.72c0.32-0.84,0.6-1.7,0.84-2.57c0.23-0.81,0.37-1.61,0.44-2.45c0.13-1.67-0.04-3.39-0.54-4.95
			c-0.49-1.55-1.35-2.92-2.46-3.71c-1.15-0.81-2.44-0.99-3.78-0.55c-1.35,0.45-2.69,1.53-3.76,2.82c-0.27,0.32-0.52,0.66-0.76,1.01
			c-0.21,0.32-0.36,0.59-0.52,0.97c-0.31,0.74-0.53,1.58-0.71,2.44c-0.34,1.72-0.45,3.54-0.25,5.24c0.19,1.69,0.82,3.31,1.85,3.68
			c0.78,0.34,1.6,0.44,2.32,0.47c0.36,0.01,0.7,0.02,1.04,0c0.33-0.07,0.64,0.02,1.45,0.23L336.62,387.62z"/>
	</g>
	<g>
		<g>
			
				<ellipse transform="matrix(0.354 -0.9352 0.9352 0.354 -58.6554 688.7463)" class="st0" cx="469.25" cy="386.83" rx="4.77" ry="5.05"/>
		</g>
		<g>
			<path class="st4" d="M464.47,385.05c1.06-2.19,2.62-4.13,4.78-5.55c1.07-0.71,2.31-1.23,3.62-1.53c1.32-0.28,2.71-0.29,4.04-0.08
				c0.67,0.11,1.32,0.28,1.95,0.48c0.61,0.19,1.22,0.4,1.83,0.67c1.22,0.52,2.42,1.25,3.49,2.26c1.07,1,1.97,2.33,2.44,3.79
				c0.49,1.46,0.6,2.99,0.45,4.4c-0.07,0.71-0.2,1.4-0.38,2.06c-0.09,0.33-0.19,0.66-0.3,0.98l-0.17,0.48l-0.09,0.24l-0.18,0.39
				c-0.51,0.98-0.97,1.44-1.45,1.97c-0.47,0.5-0.95,0.94-1.44,1.36c-1.93,1.66-4.04,2.91-6.23,4.01c-2.21,1.05-4.54,1.87-6.98,2.3
				c-2.42,0.42-4.98,0.48-7.37-0.19l0.25-1.81c4.33-0.1,8.38-1.84,12.02-4.1c1.83-1.11,3.54-2.45,5.04-3.84
				c0.37-0.35,0.71-0.71,1.01-1.06c0.29-0.32,0.57-0.75,0.57-0.81l0.16-0.51c0.07-0.22,0.13-0.45,0.18-0.67
				c0.1-0.45,0.18-0.89,0.23-1.32c0.17-1.75-0.13-3.18-1.13-4.51c-0.51-0.66-1.21-1.26-2.03-1.79c-0.41-0.27-0.85-0.51-1.31-0.74
				c-0.44-0.2-0.89-0.37-1.34-0.5c-1.81-0.53-3.76-0.41-5.65,0.39c-1.87,0.79-3.69,2.15-5.19,3.75L464.47,385.05z"/>
		</g>
		<g>
			
				<ellipse transform="matrix(0.354 -0.9352 0.9352 0.354 -47.7899 713.7202)" class="st0" cx="492.76" cy="391.45" rx="2.42" ry="2.57"/>
		</g>
		<g>
			
				<ellipse transform="matrix(0.354 -0.9352 0.9352 0.354 -55.8344 715.7109)" class="st0" cx="490.18" cy="398.27" rx="2.42" ry="2.57"/>
		</g>
	</g>
	<g>
		<line class="st3" x1="390.1" y1="386.24" x2="363.51" y2="368.18"/>
		<g>
			
				<ellipse transform="matrix(0.562 -0.8271 0.8271 0.562 -155.7762 490.4688)" class="st0" cx="385.21" cy="392.32" rx="9.22" ry="5.8"/>
		</g>
		<line class="st3" x1="404.16" y1="365.67" x2="377.57" y2="347.6"/>
		<g>
			
				<ellipse transform="matrix(0.562 -0.8271 0.8271 0.562 -132.6026 493.0827)" class="st0" cx="399.27" cy="371.75" rx="9.22" ry="5.8"/>
		</g>
		<g>
			
				<rect x="359.64" y="356.36" transform="matrix(0.5629 -0.8265 0.8265 0.5629 -134.2381 465.9327)" class="st0" width="27.5" height="7.04"/>
		</g>
	</g>
	<g>
		<line class="st3" x1="447.83" y1="415.99" x2="416.8" y2="412.41"/>
		<g>
			<path class="st0" d="M417.71,412.38c0,0,10.33-9.33,10.91-14.37s5.27,14.44-0.18,15.61
				C422.98,414.79,417.71,412.38,417.71,412.38z"/>
		</g>
		<g>
			
				<ellipse transform="matrix(0.1148 -0.9934 0.9934 0.1148 -25.5568 818.48)" class="st0" cx="446.47" cy="423.58" rx="8.96" ry="5.63"/>
		</g>
	</g>
</g>
</svg>
